<svg xmlns="http://www.w3.org/2000/svg" width="49.344" height="44.727" viewBox="0 0 49.344 44.727">
  <g id="piggy-bank" transform="translate(-1.5 -4.845)">
    <path id="Path_453" data-name="Path 453" d="M58.243,37.49a.668.668,0,0,1-.183-.026.691.691,0,0,1-.483-.848,12.362,12.362,0,0,0,.445-3.264c0-5.449-3.729-10.5-9.738-13.168a.691.691,0,0,1,.561-1.262c6.511,2.9,10.556,8.426,10.556,14.43a13.774,13.774,0,0,1-.494,3.629.691.691,0,0,1-.664.509Z" transform="translate(-14.197 -4.184)" fill="#fff" stroke="#fff" stroke-width="1"/>
    <path id="Path_454" data-name="Path 454" d="M35.993,51.447H31.586a1.327,1.327,0,0,1-1.326-1.326V47.408a24.863,24.863,0,0,1-10.946,0v2.712a1.327,1.327,0,0,1-1.326,1.326H13.582a1.327,1.327,0,0,1-1.326-1.326V44.554A17.512,17.512,0,0,1,6.064,38.12l-2.256-.466A2.26,2.26,0,0,1,2,35.438v-7.79a2.279,2.279,0,0,1,1.807-2.223l2.257-.46a16.644,16.644,0,0,1,4.305-5.078c-.342-1.575-1.291-4.483-3.721-5.3a.691.691,0,0,1,.036-1.32A11.24,11.24,0,0,1,16.94,16.344,25.083,25.083,0,0,1,20.3,15.47a.691.691,0,1,1,.258,1.357A23.412,23.412,0,0,0,17,17.785a.691.691,0,0,1-.723-.16,10.4,10.4,0,0,0-7.256-3.213,10.255,10.255,0,0,1,2.787,5.633.691.691,0,0,1-.259.672A15.309,15.309,0,0,0,7.138,25.89a.691.691,0,0,1-.477.363l-2.575.525a.892.892,0,0,0-.7.87v7.79a.878.878,0,0,0,.7.863l2.581.532a.691.691,0,0,1,.475.362A16.145,16.145,0,0,0,13.3,43.575a.691.691,0,0,1,.336.592v5.9h4.3V46.529a.691.691,0,0,1,.867-.668,23.522,23.522,0,0,0,11.975,0,.691.691,0,0,1,.867.668v3.536h4.289v-5.9a.711.711,0,1,1,1.381.207v5.746a1.324,1.324,0,0,1-1.319,1.326Z" transform="translate(0 -2.375)" fill="#fff" stroke="#fff" stroke-width="1"/>
    <path id="Path_455" data-name="Path 455" d="M57.4,53.391a.691.691,0,0,1-.5-1.168,14.53,14.53,0,0,0,1.24-1.47.692.692,0,0,1,1.117.816,16.206,16.206,0,0,1-1.356,1.61.691.691,0,0,1-.5.213Z" transform="translate(-16.926 -13.96)" fill="#fff" stroke="#fff" stroke-width="1"/>
    <path id="Path_456" data-name="Path 456" d="M17.873,31.437h-.329a.691.691,0,1,1,0-1.381h.329a.691.691,0,0,1,0,1.381Z" transform="translate(-4.595 -7.645)" fill="#fff" stroke="#fff" stroke-width="1"/>
    <path id="Path_457" data-name="Path 457" d="M64.314,37.638a4.677,4.677,0,0,1-1.265-.164.691.691,0,0,1,.4-1.322,3.24,3.24,0,0,0,2.615-.441c1.066-.8,1.631-2.516,1.631-4.964a.691.691,0,0,1,1.381,0c0,2.955-.742,5-2.2,6.083A4.268,4.268,0,0,1,64.314,37.638Z" transform="translate(-18.736 -7.645)" fill="#fff" stroke="#fff" stroke-width="1"/>
    <path id="Path_458" data-name="Path 458" d="M40.31,19.157a.691.691,0,0,1-.465-1.2,6.475,6.475,0,0,0,2.1-4.772,6.175,6.175,0,0,0-.162-1.418,6.5,6.5,0,0,0-6.3-5.04,6.412,6.412,0,0,0-6.3,5.032,6.225,6.225,0,0,0-.163,1.426,6.475,6.475,0,0,0,2.1,4.772.691.691,0,1,1-.93,1.021,7.856,7.856,0,0,1-2.555-5.793,7.5,7.5,0,0,1,.2-1.736,7.782,7.782,0,0,1,7.64-6.1,7.886,7.886,0,0,1,7.645,6.111,7.5,7.5,0,0,1,.2,1.727,7.856,7.856,0,0,1-2.555,5.793.686.686,0,0,1-.465.182Z" transform="translate(-7.935 0)" fill="#fff" stroke="#fff" stroke-width="1"/>
    <path id="Path_459" data-name="Path 459" d="M37.921,15.371a2.311,2.311,0,0,1-2.41-2.191,2.141,2.141,0,0,1,.1-.645,2.5,2.5,0,0,1,4.611-.023.691.691,0,1,1-1.3.465,1.056,1.056,0,0,0-1-.606,1.036,1.036,0,0,0-1,.606.717.717,0,0,0-.03.2.94.94,0,0,0,1.028.81.691.691,0,0,1,0,1.381Z" transform="translate(-10.367 -1.746)" fill="#fff" stroke="#fff" stroke-width="1"/>
    <path id="Path_460" data-name="Path 460" d="M37.952,19.716a2.4,2.4,0,0,1-2.3-1.524.691.691,0,1,1,1.3-.461,1.13,1.13,0,0,0,2,0,.718.718,0,0,0,.031-.207.955.955,0,0,0-1.037-.809.691.691,0,1,1,0-1.381,2.314,2.314,0,0,1,2.417,2.191,2.141,2.141,0,0,1-.1.645,2.408,2.408,0,0,1-2.314,1.546Z" transform="translate(-10.399 -3.089)" fill="#fff" stroke="#fff" stroke-width="1"/>
    <path id="Path_461" data-name="Path 461" d="M38.691,21.683A.691.691,0,0,1,38,20.992v-.615a.691.691,0,1,1,1.381,0v.615A.691.691,0,0,1,38.691,21.683Z" transform="translate(-11.137 -4.437)" fill="#fff" stroke="#fff" stroke-width="1"/>
    <path id="Path_462" data-name="Path 462" d="M38.691,12.1A.691.691,0,0,1,38,11.405v-.615a.691.691,0,1,1,1.381,0v.615A.691.691,0,0,1,38.691,12.1Z" transform="translate(-11.137 -1.471)" fill="#fff" stroke="#fff" stroke-width="1"/>
    <path id="Path_463" data-name="Path 463" d="M42.4,24.726H28.967a.691.691,0,0,1,0-1.381H42.4a.691.691,0,1,1,0,1.381Z" transform="translate(-8.129 -5.569)" fill="#fff" stroke="#fff" stroke-width="1"/>
  </g>
</svg>
