<svg xmlns="http://www.w3.org/2000/svg" width="44.846" height="44.843" viewBox="0 0 44.846 44.843">
  <g id="cargo-box" transform="translate(-4.057 -4.557)">
    <path id="Path_464" data-name="Path 464" d="M82.6,78.244a.646.646,0,0,0-.767-.494L80.654,78a.645.645,0,1,0,.272,1.261L82.1,79.01A.645.645,0,0,0,82.6,78.244Z" transform="translate(-47.72 -46.199)" fill="#fff" stroke="#fff" stroke-width="1"/>
    <path id="Path_465" data-name="Path 465" d="M68.974,79.751l-3.265.7a.645.645,0,1,0,.272,1.261l3.265-.7a.645.645,0,1,0-.272-1.261Z" transform="translate(-38.285 -47.463)" fill="#fff" stroke="#fff" stroke-width="1"/>
    <path id="Path_466" data-name="Path 466" d="M42.247,91.611a4.065,4.065,0,1,0,4.83,3.117,4.065,4.065,0,0,0-4.83-3.117ZM43.689,98.3A2.775,2.775,0,1,1,45.816,95,2.775,2.775,0,0,1,43.689,98.3Z" transform="translate(-21.769 -54.902)" fill="#fff" stroke="#fff" stroke-width="1"/>
    <path id="Path_467" data-name="Path 467" d="M48.371,34.852l-.55-2.553a.645.645,0,0,0-.767-.495l-2.431.524L40.276,12.168a.646.646,0,0,0-.766-.494L26.583,14.46l-7.234,1.56L16.986,5.066a.646.646,0,0,0-.631-.509H5.2a.645.645,0,0,0-.645.645V7.813a.645.645,0,0,0,.645.645h8.524l5.362,24.862a7.7,7.7,0,1,0,9.88,6.375l18.908-4.078A.645.645,0,0,0,48.371,34.852ZM23.05,33.182,20.758,22.559l6.6-1.424.969,4.489a.644.644,0,0,0,.508.5.635.635,0,0,0,.123.012.645.645,0,0,0,.534-.284l1.735-2.566,2.431,1.646a.645.645,0,0,0,.992-.669l-.968-4.489,6.6-1.424L43.364,32.6l-15.9,3.429a7.742,7.742,0,0,0-4.414-2.847Zm8.237-18.416,1,4.645.765,3.547-1.634-1.106a.646.646,0,0,0-.9.173l-1.249,1.849-1.788-8.288Zm8.731,2.319-6.6,1.423-.866-4.015,6.6-1.424ZM26.224,15.858l.866,4.015-6.6,1.425-.866-4.016ZM14.247,7.168h-8.4V5.847h9.987l2.389,11.076,3.466,16.071a7.659,7.659,0,0,0-1.34.053l-5.47-25.37a.645.645,0,0,0-.631-.509Zm8.443,39.783A6.415,6.415,0,1,1,27.6,39.331a6.415,6.415,0,0,1-4.915,7.621ZM28.7,38.435a7.646,7.646,0,0,0-.5-1.243L46.7,33.2l.279,1.29Z" transform="translate(0 0.5)" fill="#fff" stroke="#fff" stroke-width="1"/>
  </g>
</svg>
