<svg xmlns="http://www.w3.org/2000/svg" width="41.152" height="37.723" viewBox="0 0 41.152 37.723">
  <g id="refund" transform="translate(-2 -5)">
    <path id="Path_468" data-name="Path 468" d="M36.293,19.892V11.457l4.115-4.115V21.461H41.78V5.686h-.006A.667.667,0,0,0,41.094,5H8.173a.683.683,0,0,0-.485.2L2.2,10.687a.685.685,0,0,0-.2.486V37.236a.685.685,0,0,0,.686.686H35.607a.685.685,0,0,0,.686-.686v-8.2a7.877,7.877,0,0,1-6.516,12.318.686.686,0,0,0,0,1.372h1.372a11.992,11.992,0,0,0,5.144-22.83Zm-.97-9.405H22.86l4.115-4.115H39.439Zm-14.6.2a.683.683,0,0,0-.2.485v4.8H17.775V11.457L22.86,6.372h2.176ZM8.457,6.372H20.92l-4.115,4.115H4.342ZM3.372,36.55V11.859H16.4v4.8a.685.685,0,0,0,.686.686H21.2a.685.685,0,0,0,.686-.686v-4.8H34.921v7.475a11.924,11.924,0,0,0-3.772-.617H30.12V15.288a.685.685,0,0,0-1.084-.558l-9.6,6.859a.685.685,0,0,0,0,1.116l9.6,6.859a.685.685,0,0,0,1.084-.558V25.583a7.853,7.853,0,0,1,4.8,1.906v9.06ZM36.326,40a9.255,9.255,0,0,0-6.549-15.8h-.343a.685.685,0,0,0-.686.686v2.783l-7.736-5.526,7.736-5.526V19.4a.685.685,0,0,0,.686.686h1.715A10.63,10.63,0,0,1,36.326,40Z" fill="#fff"/>
    <path id="Path_469" data-name="Path 469" d="M6,47h8.23v1.372H6Z" transform="translate(-1.257 -13.194)" fill="#fff"/>
    <path id="Path_470" data-name="Path 470" d="M6,43h8.23v1.372H6Z" transform="translate(-1.257 -11.937)" fill="#fff"/>
  </g>
</svg>
