<svg xmlns="http://www.w3.org/2000/svg" width="330.417" height="80.374" viewBox="0 0 330.417 80.374">
  <g id="Group_109" data-name="Group 109" transform="translate(-5971 6014.6)">
    <text id="fly_flower" data-name="fly flower" transform="translate(5971 -5960.226)" fill="#fff" font-size="64" font-family="GreatVibes-Regular, Great Vibes"><tspan x="0" y="0">Fly Flower</tspan></text>
    <g id="Group_91" data-name="Group 91" transform="matrix(0.996, -0.087, 0.087, 0.996, -1151.763, -32.489)">
      <path id="Path_445" data-name="Path 445" d="M63.121,126.907a47.157,47.157,0,0,1,1.012-10.7,46.992,46.992,0,0,1-10.7,1.011c-7.585-.191-15.043,1.668-19.177,8.008,3.528-2.278,8.051-2.551,12.508-1.86a35.479,35.479,0,0,0,8.091.274,35.476,35.476,0,0,0-1.787,7.9c-.893,8.648-5.3,16.62-18.531,14.691-1.028-.149-2.042-.344-2.982-.569,2.019,2.211,7.318,3.686,9.666,3.726C58.965,149.682,63.413,138.442,63.121,126.907Z" transform="matrix(0.996, 0.087, -0.087, 0.996, 7888.927, -5423.771)" fill="#fff"/>
      <path id="Path_444" data-name="Path 444" d="M77,151.2a44.146,44.146,0,0,1-9.241-4,44.184,44.184,0,0,1-2.191,9.828c-2.365,6.7-2.866,13.889,1.589,19.408-1.01-3.8.056-7.912,1.96-11.687a33.249,33.249,0,0,0,2.585-7.132,33.233,33.233,0,0,0,6.521,3.877c7.449,3.3,13.279,9.532,7.733,20.766-.431.873-.9,1.72-1.37,2.492,2.554-1.159,5.4-5.455,6.116-7.536C96.1,161.5,87.364,154.279,77,151.2Z" transform="translate(7832.889 -5464.118) rotate(3)" fill="#fff"/>
      <path id="Path_446" data-name="Path 446" d="M63.607,100.033a43.541,43.541,0,0,1,9.74-1.958,43.547,43.547,0,0,1-3.752-9.2C67.74,82.108,64.1,76,57.386,74.033c2.958,2.515,4.407,6.447,4.986,10.579a32.85,32.85,0,0,0,1.917,7.236,32.848,32.848,0,0,0-7.467.527c-7.9,1.517-16.13-.258-17.955-12.486-.141-.95-.239-1.9-.291-2.792-1.419,2.376-1.311,7.462-.719,9.553C42.333,102.432,53.472,103.372,63.607,100.033Z" transform="translate(7892.727 -5362.654) rotate(16)" fill="#fff"/>
    </g>
  </g>
</svg>
